<svg width="80" height="119" viewBox="0 0 80 119" fill="none" xmlns="http://www.w3.org/2000/svg">
<path d="M39.9437 79.6999H79.9999L79.9999 0L40.0562 39.738V7.23028e-06L0 6.75625e-06V79.6999L39.9437 39.9619V79.6999Z" fill="white"/>
<path d="M23.2875 94.5534C22.7219 95.1036 22.0096 95.3787 21.1507 95.3787C20.2918 95.3787 19.5795 95.1036 19.0139 94.5534C18.4692 94.0031 18.1969 93.3306 18.1969 92.5358C18.1969 91.7206 18.4692 91.0379 19.0139 90.4877C19.5795 89.9374 20.2918 89.6623 21.1507 89.6623C22.0096 89.6623 22.7219 89.9476 23.2875 90.5182C23.8531 91.0685 24.1359 91.741 24.1359 92.5358C24.1359 93.3306 23.8531 94.0031 23.2875 94.5534Z" fill="white"/>
<path d="M18.7311 111.428V96.6932H23.5389V111.428H18.7311Z" fill="white"/>
<path d="M0 111.428V96.6932H4.80777V98.8331C5.70857 97.1416 7.34259 96.2958 9.70982 96.2958C13.3968 96.2958 15.2403 98.3032 15.2403 102.318V111.428H10.4011V103.846C10.4011 102.583 10.1916 101.666 9.77266 101.095C9.37463 100.525 8.69379 100.239 7.73014 100.239C5.7819 100.239 4.80777 101.401 4.80777 103.724V111.428H0Z" fill="white"/>
<path fill-rule="evenodd" clip-rule="evenodd" d="M42.7688 90.0291H37.961V97.5492H37.9925V98.8025C37.5735 98.0281 36.945 97.4167 36.1071 96.9683C35.2691 96.52 34.3159 96.2958 33.2475 96.2958C31.0898 96.2958 29.351 97.0295 28.0313 98.4968C26.7115 99.9641 26.0516 101.819 26.0516 104.06C26.0516 106.343 26.6905 108.208 27.9684 109.655C29.2463 111.102 30.9851 111.825 33.1847 111.825C34.2321 111.825 35.1853 111.601 36.0442 111.152C36.9241 110.684 37.5735 110.083 37.9925 109.349V111.428H42.7688V90.0291ZM37.2383 106.842C36.6098 107.576 35.7195 107.943 34.5673 107.943C33.478 107.943 32.5981 107.586 31.9278 106.873C31.2783 106.139 30.9536 105.202 30.9536 104.06C30.9536 102.919 31.2783 101.992 31.9278 101.279C32.5981 100.565 33.478 100.209 34.5673 100.209C35.7195 100.209 36.6098 100.576 37.2383 101.309C37.8668 102.043 38.181 102.96 38.181 104.06C38.181 105.181 37.8668 106.109 37.2383 106.842Z" fill="white"/>
<path d="M56.6482 96.6932H61.456V110.969C61.456 113.252 60.7332 115.025 59.2878 116.288C57.9261 117.429 56.0721 118 53.7258 118C51.2748 118 49.4104 117.491 48.1325 116.472C46.8965 115.453 46.268 114.158 46.2471 112.589H51.0863C51.191 113.914 52.0709 114.576 53.7258 114.576C55.6741 114.576 56.6482 113.476 56.6482 111.275V108.982C55.7683 110.612 54.1658 111.428 51.8404 111.428C49.976 111.428 48.5724 110.877 47.6297 109.777C46.7079 108.676 46.2471 107.168 46.2471 105.253V96.6932H51.0548V104.55C51.0548 106.669 51.9452 107.729 53.7258 107.729C54.6685 107.729 55.3913 107.403 55.894 106.751C56.3968 106.078 56.6482 105.161 56.6482 103.999V96.6932Z" fill="white"/>
<path d="M66.3623 110.266C67.3259 111.305 68.7085 111.825 70.5101 111.825C72.7517 111.825 74.3228 110.989 75.2236 109.318V111.428H80V96.6932H75.2236V104.611C75.2236 106.791 74.2495 107.882 72.3013 107.882C70.6254 107.882 69.7874 106.842 69.7874 104.764V96.6932H64.9168V105.803C64.9168 107.719 65.3986 109.206 66.3623 110.266Z" fill="white"/>
</svg>
